HIERARCHY
ROOT Hips
{
	OFFSET 0.000000 0.000000 0.000000
	CHANNELS 6 Xposition Yposition Zposition Xrotation Yrotation Zrotation
	JOINT LeftUpLeg_virtual
	{
		OFFSET 0.000000 0.000000 0.000000
		CHANNELS 3 Xrotation Yrotation Zrotation
		JOINT LeftUpLeg
		{
			OFFSET 13.026900 -6.336304 -1.092800
			CHANNELS 3 Xrotation Yrotation Zrotation
			JOINT LeftLeg
			{
				OFFSET 0.524474 -46.096886 9.782700
				CHANNELS 3 Xrotation Yrotation Zrotation
				JOINT LeftFoot
				{
					OFFSET -0.524474 -53.427422 -12.948200
					CHANNELS 3 Xrotation Yrotation Zrotation
					JOINT LeftToeBase
					{
						OFFSET 0.192200 -14.009700 16.364100
						CHANNELS 3 Xrotation Yrotation Zrotation
						JOINT LeftToe_End
						{
							OFFSET -1.784700 -0.561700 9.474800
							CHANNELS 3 Xrotation Yrotation Zrotation
							End Site
							{
								OFFSET 0 0 0
							}
						}
					}
				}
			}
		}
	}
	JOINT RightUpLeg_virtual
	{
		OFFSET 0.000000 0.000000 0.000000
		CHANNELS 3 Xrotation Yrotation Zrotation
		JOINT RightUpLeg
		{
			OFFSET -12.883000 -6.336304 -1.092800
			CHANNELS 3 Xrotation Yrotation Zrotation
			JOINT RightLeg
			{
				OFFSET -0.524587 -46.096825 9.782800
				CHANNELS 3 Xrotation Yrotation Zrotation
				JOINT RightFoot
				{
					OFFSET 0.524587 -53.427383 -12.948300
					CHANNELS 3 Xrotation Yrotation Zrotation
					JOINT RightToeBase
					{
						OFFSET -0.192200 -14.009700 16.364100
						CHANNELS 3 Xrotation Yrotation Zrotation
						JOINT RightToe_End
						{
							OFFSET 1.784700 -0.561700 9.474800
							CHANNELS 3 Xrotation Yrotation Zrotation
							End Site
							{
								OFFSET 0 0 0
							}
						}
					}
				}
			}
		}
	}
	JOINT Spine_virtual
	{
		OFFSET 0.000000 0.000000 0.000000
		CHANNELS 3 Xrotation Yrotation Zrotation
		JOINT Spine
		{
			OFFSET 0.072000 7.257294 -0.789700
			CHANNELS 3 Xrotation Yrotation Zrotation
			JOINT Spine1
			{
				OFFSET 0.000000 12.508769 -0.658067
				CHANNELS 3 Xrotation Yrotation Zrotation
				JOINT Spine1_split
				{
					OFFSET 0.000000 12.508769 -0.658067
					CHANNELS 3 Xrotation Yrotation Zrotation
					JOINT Spine2
					{
						OFFSET 0.000000 12.508769 -0.658067
						CHANNELS 3 Xrotation Yrotation Zrotation
						JOINT Neck_virtual
						{
							OFFSET 0.000000 0.000000 0.000000
							CHANNELS 3 Xrotation Yrotation Zrotation
							JOINT Neck
							{
								OFFSET 0.000000 14.033295 7.520400
								CHANNELS 3 Xrotation Yrotation Zrotation
								JOINT Head
								{
									OFFSET 0.000000 8.198502 5.703100
									CHANNELS 3 Xrotation Yrotation Zrotation
									JOINT HeadTop_End
									{
										OFFSET 0.000000 17.760803 13.332701
										CHANNELS 3 Xrotation Yrotation Zrotation
										End Site
										{
											OFFSET 0 0 0
										}
									}
								}
							}
						}
						JOINT LeftShoulder_virtual
						{
							OFFSET 0.000000 0.000000 0.000000
							CHANNELS 3 Xrotation Yrotation Zrotation
							JOINT LeftShoulder
							{
								OFFSET 6.292450 5.785301 -0.669000
								CHANNELS 3 Xrotation Yrotation Zrotation
								JOINT LeftShoulder_split
								{
									OFFSET 6.292450 5.785301 -0.669000
									CHANNELS 3 Xrotation Yrotation Zrotation
									JOINT LeftArm
									{
										OFFSET 13.907140 -6.093903 1.965100
										CHANNELS 3 Xrotation Yrotation Zrotation
										JOINT LeftForeArm
										{
											OFFSET 34.140198 0.000000 0.000000
											CHANNELS 3 Xrotation Yrotation Zrotation
											JOINT LeftHand
											{
												OFFSET 40.960209 0.000000 0.000000
												CHANNELS 3 Xrotation Yrotation Zrotation
												End Site
												{
													OFFSET 0 0 0
												}
											}
										}
									}
								}
							}
						}
						JOINT RightShoulder_virtual
						{
							OFFSET 0.000000 0.000000 0.000000
							CHANNELS 3 Xrotation Yrotation Zrotation
							JOINT RightShoulder
							{
								OFFSET -6.292450 5.785301 -0.669000
								CHANNELS 3 Xrotation Yrotation Zrotation
								JOINT RightShoulder_split
								{
									OFFSET -6.292450 5.785301 -0.669000
									CHANNELS 3 Xrotation Yrotation Zrotation
									JOINT RightArm
									{
										OFFSET -13.907140 -6.093903 1.965100
										CHANNELS 3 Xrotation Yrotation Zrotation
										JOINT RightForeArm
										{
											OFFSET -34.140198 0.000000 0.000000
											CHANNELS 3 Xrotation Yrotation Zrotation
											JOINT RightHand
											{
												OFFSET -40.960209 0.000000 0.000000
												CHANNELS 3 Xrotation Yrotation Zrotation
												End Site
												{
													OFFSET 0 0 0
												}
											}
										}
									}
								}
							}
						}
					}
				}
			}
		}
	}
}
MOTION
Frames: 7
Frame Time: 0.03333333
-3.338400 113.995827 0.151814 0.000000 0.000000 0.000000 1.910514 2.360121 -1.797481 -27.476967 11.058481 10.072967 41.741574 0.193625 1.693858 -2.894982 -1.084380 -3.749765 -4.591937 -0.651178 -0.471188 0.000000 0.000000 0.000000 4.067057 3.110328 -1.359434 -21.857118 -4.081744 1.293291 21.726171 -0.864148 -2.158227 -5.099842 1.971306 3.532879 -2.024649 0.341173 1.390924 0.000000 0.000000 0.000000 0.999855 0.821314 -1.243825 6.380910 -0.564680 1.255348 2.618843 -1.481875 1.633319 1.015302 -0.182478 0.723450 0.000000 0.000000 0.000000 2.646650 -1.463816 1.289856 -2.247117 4.577492 -0.813479 -1.794641 -0.130709 0.026424 0.000000 0.000000 0.000000 2.754847 -1.729778 1.264887 1.206462 -10.241714 -14.617218 1.556513 2.805266 -2.772871 11.940574 -22.747148 -47.930788 -0.822418 -21.924868 -2.299216 0.000000 0.000000 0.000000 1.491715 -1.416413 2.465726 0.687397 3.143258 16.279976 0.591752 0.139410 -2.763116 7.363466 23.003415 48.084170 -0.316962 33.590037 1.607691 0.000000 0.000000 0.000000 
-1.264764 113.655945 1.945221 0.000000 0.000000 0.000000 2.230403 2.338612 -1.555279 -27.158393 9.979577 10.860433 40.968246 0.897683 1.305538 -3.370497 -0.709069 -3.045505 -3.747244 -0.394881 -0.940984 0.000000 0.000000 0.000000 4.415844 2.893082 -1.115275 -21.542642 -3.276075 0.534030 22.569949 -0.524372 -2.272284 -5.588195 1.685245 3.090416 -1.265289 0.245220 1.382601 0.000000 0.000000 0.000000 1.500483 0.880256 -1.403411 6.376817 -0.067923 1.277190 2.897800 -1.237812 1.494539 0.858030 0.741455 0.673585 0.000000 0.000000 0.000000 2.724178 -1.221639 1.123415 -2.237923 4.071301 -0.280055 -2.163691 -0.287042 -0.037767 0.000000 0.000000 0.000000 3.036389 -1.415611 1.182568 1.132807 -9.698906 -14.801676 0.765997 3.561381 -3.428616 12.507341 -21.117464 -48.184355 -0.888884 -21.155990 -2.366128 0.000000 0.000000 0.000000 1.599843 -1.162063 2.206536 0.449928 3.221105 16.060288 1.138404 0.778792 -3.149229 6.677279 23.540378 47.867595 -0.217951 37.000064 1.498132 0.000000 0.000000 0.000000 
1.995944 113.276810 4.544537 0.000000 0.000000 0.000000 2.463887 2.148376 -1.067410 -27.407632 8.252913 12.708442 39.448304 2.060257 0.819963 -2.681880 0.360403 -4.024337 -2.513397 -0.066295 -1.583841 0.000000 0.000000 0.000000 4.460929 3.116724 -0.739636 -20.640418 -2.359714 -0.927381 24.150318 0.231731 -2.487746 -6.569126 1.215766 3.332044 -1.082532 0.215185 1.186812 0.000000 0.000000 0.000000 1.868986 1.089090 -1.247419 6.610137 1.003770 1.160533 3.164719 -0.262307 1.177427 0.845223 1.054431 0.671552 0.000000 0.000000 0.000000 2.857241 -0.267499 0.722442 -2.025433 3.338490 -0.007488 -2.677474 -1.734505 -0.042397 0.000000 0.000000 0.000000 3.215401 -0.417012 0.869315 1.004711 -9.586871 -15.301208 -0.157727 3.754787 -3.815573 11.954909 -18.443309 -48.522767 -0.978283 -20.760659 -2.330512 0.000000 0.000000 0.000000 1.731622 -0.185790 1.732142 0.184099 3.954029 15.934242 1.855445 0.672244 -3.318525 7.210895 23.694476 46.887633 -0.024591 43.318518 1.182775 0.000000 0.000000 0.000000 
5.865242 112.657997 7.548779 0.000000 0.000000 0.000000 2.466145 1.904716 -0.495466 -28.187368 6.119343 15.228540 37.092661 3.322462 0.409921 -0.621075 1.508881 -6.755620 -1.768665 0.240189 -2.045715 0.000000 0.000000 0.000000 4.175225 3.412385 -0.314267 -19.202986 -1.513268 -3.017449 25.836866 1.391507 -2.712040 -7.692976 0.811140 4.337715 -1.349902 0.254284 0.850288 0.000000 0.000000 0.000000 1.922195 1.248776 -0.887505 6.963517 2.479519 0.977553 3.426154 1.236895 0.748693 1.106515 0.584207 0.636372 0.000000 0.000000 0.000000 3.054738 1.243565 0.198134 -1.695047 2.487764 0.012943 -3.298343 -4.272924 0.012522 0.000000 0.000000 0.000000 3.344113 1.105666 0.406265 0.835365 -9.945662 -16.091903 -0.763593 3.415038 -4.034658 10.413203 -15.077730 -48.848867 -1.021002 -20.722944 -2.175983 0.000000 0.000000 0.000000 1.903107 1.338147 1.147448 -0.110610 5.258957 15.874119 2.446831 -0.013080 -3.122983 8.693165 23.173247 45.290680 0.328228 51.097615 0.602293 0.000000 0.000000 0.000000 
9.918690 111.734428 10.737343 0.000000 0.000000 0.000000 2.223187 1.522438 -0.013077 -29.360692 4.001110 18.056969 34.320867 4.509991 0.127262 2.451026 2.071526 -10.710444 -1.804677 0.448206 -2.080874 0.000000 0.000000 0.000000 3.581856 3.441134 0.016210 -17.275167 -0.947172 -5.557814 26.956139 2.759336 -2.847957 -8.696322 0.580550 5.911060 -1.553409 0.341255 0.514879 0.000000 0.000000 0.000000 1.817803 1.368136 -0.555743 7.339981 4.122804 0.821270 3.679440 3.028908 0.285531 1.400499 -0.030913 0.678063 0.000000 0.000000 0.000000 3.297560 3.070248 -0.321608 -1.378535 1.594844 -0.175864 -3.914581 -7.468387 0.122277 0.000000 0.000000 0.000000 3.436236 2.934739 -0.095049 0.630917 -10.703901 -17.187751 -0.851001 2.916004 -4.103159 8.264880 -11.248219 -49.171635 -0.946949 -20.949751 -1.900027 0.000000 0.000000 0.000000 2.102888 3.176551 0.577508 -0.407862 7.036535 15.864375 2.802970 -0.675600 -2.864980 10.361214 21.873841 43.351433 0.812872 59.066902 -0.193417 0.000000 0.000000 0.000000 
13.686565 110.542709 13.861816 0.000000 0.000000 0.000000 1.769312 0.937271 0.212556 -30.740711 2.266349 20.741280 31.493012 5.627537 -0.048171 5.839012 1.583216 -14.927001 -2.190539 0.521322 -1.751310 0.000000 0.000000 0.000000 2.855744 3.269360 0.096154 -14.957501 -0.694677 -8.247625 27.098407 4.159161 -2.818336 -9.616033 0.547390 7.876640 -1.524261 0.426550 0.301436 0.000000 0.000000 0.000000 1.574977 1.270684 -0.443107 7.695363 5.686690 0.764920 3.904342 4.890932 -0.126951 1.705174 -0.739957 0.608601 0.000000 0.000000 0.000000 3.523758 4.980739 -0.736641 -1.182834 0.737050 -0.445988 -4.306417 -10.849757 0.303615 0.000000 0.000000 0.000000 3.526566 4.846874 -0.546663 0.389960 -11.716377 -18.438548 -0.597641 2.506613 -4.175652 5.892219 -7.305871 -49.530698 -0.758564 -21.369423 -1.523639 0.000000 0.000000 0.000000 2.340579 5.095827 0.090306 -0.695499 9.132587 15.852920 2.766821 -0.838254 -2.718513 11.475561 19.741144 41.454751 1.308391 66.210187 -1.050678 0.000000 0.000000 0.000000 
17.003950 109.171982 16.718945 0.000000 0.000000 0.000000 1.112928 0.462845 0.093161 -32.386954 0.951321 23.125750 29.160086 6.360505 -0.116223 8.758297 -0.155571 -18.820163 -2.360897 0.493761 -1.198201 0.000000 0.000000 0.000000 2.191593 2.968486 -0.141344 -12.294341 -0.694868 -10.829620 26.229257 5.496059 -2.646056 -10.504863 0.748019 10.019344 -1.709217 0.469655 0.252272 0.000000 0.000000 0.000000 1.289855 1.053574 -0.641015 8.000781 7.076371 0.830869 4.096344 6.684218 -0.459690 1.788759 -1.297611 0.623544 0.000000 0.000000 0.000000 3.724290 6.807749 -1.016395 -1.169983 0.044930 -0.782221 -4.376896 -14.063579 0.582760 0.000000 0.000000 0.000000 3.640631 6.691332 -0.902009 0.128565 -12.804241 -19.724992 -0.252761 2.129920 -4.446424 3.636000 -3.449222 -49.917782 -0.427131 -21.965730 -1.052818 0.000000 0.000000 0.000000 2.556336 6.916448 -0.303733 -0.999761 11.284916 15.829885 2.484322 -0.335375 -2.652141 11.573122 16.965529 39.888277 1.737673 72.081500 -1.834417 0.000000 0.000000 0.000000 
